<svg width="300" height="300" viewBox="0 0 300 300" fill="none" xmlns="http://www.w3.org/2000/svg">
<path d="M75.2069 244.389C69.2695 230.278 68.0715 216.357 74.3099 202.334C80.1419 189.224 90.8833 180.717 103.424 174.028C115.424 167.626 128.579 163.974 141.419 159.579C149.91 156.673 158.312 153.557 166.091 149.082C180.402 140.849 190.6 129.644 196.01 114.074C200.712 100.54 201.538 87.0485 198.538 73.3378C197.1 66.7651 194.758 60.2946 190.816 54.522C192.187 59.7722 193.665 64.9672 194.858 70.2459C196.303 76.6369 196.259 83.0167 195.791 89.3926C194.054 113.08 182.215 130.69 161.109 142.89C146.828 151.145 131.231 156.253 115.749 161.736C103.422 166.102 91.291 170.862 81.8276 180.184C79.518 182.459 77.4874 184.899 75.7722 187.599C75.0815 188.687 74.6493 190.005 72.6392 190.417C71.2388 186.413 72.4283 182.582 73.3543 178.907C75.9256 168.702 83.0265 161.441 90.983 154.833C99.499 147.76 109.319 142.507 118.623 136.535C126.586 131.425 134.268 126.01 140.466 118.86C158.98 97.4995 151.182 63.3736 125.506 53.2936C109.03 46.8255 92.4291 47.7033 75.7861 52.3873C63.7872 55.7643 53.4474 62.0031 44.2036 70.0245C42.5673 71.4444 41.0725 72.9548 39.9086 74.7557C39.0307 76.1141 38.0687 77.3322 35.1738 77.3451C41.3551 59.2947 51.6246 44.6877 67.1711 33.7444C82.5743 22.9019 99.9778 16.9886 118.979 15.4113C95.1749 15.2754 73.1072 20.5315 54.219 35.3559C52.8488 33.228 54.3092 32.3942 55.1083 31.5116C65.3046 20.2503 78.1038 12.7726 92.4252 7.33222C105.962 2.18969 120.11 0.0206291 134.436 0.000186134C167.852 -0.0475077 197.755 9.06473 220.714 33.8561C230.345 44.2563 236.433 56.6786 239.27 70.2817C244.557 95.6248 239.689 119.329 225.537 141.277C214.748 158.01 199.483 170.037 182.025 179.785C166.651 188.369 150.114 194.704 134.437 202.7C123.265 208.398 112.726 214.89 105.07 224.878C95.816 236.952 93.061 250.252 97.2351 264.794C97.4526 265.552 97.6603 266.314 97.8232 267.084C97.8739 267.324 97.7617 267.595 97.7101 267.948C95.7835 269.235 94.422 267.755 93.0414 266.882C84.4709 261.462 79.664 253.23 75.2069 244.389ZM142.357 175.905C129.715 180.47 117.173 185.218 106.703 193.765C113.987 189.435 121.461 185.507 129.446 182.402C143.488 176.943 158.068 172.863 171.885 166.838C186.886 160.297 199.605 151.27 207.901 137.143C216.13 123.132 219.146 107.951 219.227 92.0789C219.239 89.5941 218.743 87.1106 218.592 84.6203C218.443 82.1514 218.096 79.7477 217.022 77.4672C218.51 87.969 218.528 98.3983 216.543 108.817C212.346 130.85 201.695 148.594 180.848 159.925C168.77 166.49 155.745 170.801 142.357 175.905ZM154.533 44.5976C164.686 52.403 170.318 63.3741 172.117 74.9445C174.954 93.191 170.301 110.331 156.542 124.333C172.794 110.821 179.734 87.1197 171.459 65.0314C165.143 48.1717 147.824 33.827 133.812 34.1818C141.645 36.3084 148.394 39.3177 154.533 44.5976Z" fill="url(#paint0_linear_23_920)"/>
<path d="M161.027 279.449C171.687 288.591 183.815 293.247 198.001 292.169C197.722 294.214 196.64 294.565 195.59 294.817C183.009 297.841 170.454 300.76 157.266 299.821C144.692 298.927 132.675 295.936 123.063 288.149C101.153 270.4 98.3853 247.87 118.436 226.702C127.804 216.812 139.68 210.368 151.746 204.194C170.781 194.453 190.095 185.144 207.175 172.279C223.111 160.275 235.191 145.51 241.425 126.709C243.692 119.87 244.47 112.858 244.083 105.699C244.017 104.483 243.537 103.064 244.908 102.049C246.639 102.474 247.098 103.987 247.709 105.205C257.446 124.625 261.257 144.543 252.838 165.396C248.215 176.847 240.217 185.914 230.657 193.766C218.985 203.353 205.845 210.906 192.845 218.643C179.012 226.877 166.351 236.409 157.923 250.123C150.968 261.441 151.94 269.134 161.027 279.449ZM127.565 249.306C124.999 257.131 126.326 264.484 130.48 271.535C126.49 261.497 127.648 251.96 133.473 242.962C137.044 237.445 141.939 233.039 147.117 228.94C162.417 216.828 180.426 209.06 197.577 199.939C208.899 193.918 218.802 186.377 227.575 176.68C225.816 176.835 225.366 177.887 224.647 178.559C215.588 187.032 205.432 194.003 194.173 199.523C179.478 206.728 164.864 214.11 151.3 223.187C141.373 229.831 132.339 237.395 127.565 249.306Z" fill="url(#paint1_linear_23_920)"/>
<path d="M110.307 55.7168C120.384 57.4356 128.803 61.3192 134.849 69.1187C143.195 79.8847 143.791 91.89 139.358 103.942C133.961 118.617 123.425 129.077 108.237 134.906C107.355 135.245 106.445 135.54 105.522 135.745C105.186 135.819 104.773 135.571 104.378 135.465C104.031 133.636 105.588 132.908 106.487 131.855C111.802 125.628 116.423 119.036 118.752 111.158C125.073 89.7751 112.356 72.1582 92.1854 66.2205C86.0161 64.4045 79.6912 63.5709 73.2909 63.0933C72.2714 63.0172 71.0778 63.3669 69.9368 61.6216C82.8838 56.2243 96.0702 54.0119 110.307 55.7168Z" fill="url(#paint2_linear_23_920)"/>
<path d="M221.073 267.957C211.519 272.03 202.334 276.231 192.099 277.681C193.463 275.981 195.197 274.94 197.187 274.269C224.277 265.146 246.125 249.081 263.228 227.11C275.864 210.876 284.929 192.881 289.403 172.907C296.97 139.127 293.543 106.695 277.09 75.6863C268.458 59.4185 256.883 45.5087 242.714 33.4942C241.812 32.7288 240.687 32.13 240.521 30.517C242.515 30.3479 243.812 31.5175 245.125 32.5185C275.544 55.6982 293.409 85.7556 298.607 122.824C303.318 156.422 295.957 187.737 278.388 216.685C265.702 237.588 247.857 253.901 225.678 265.597C224.242 266.354 222.794 267.089 221.073 267.957Z" fill="#FFDD9B"/>
<path d="M13.8699 182.964C20.992 205.653 32.7905 225.289 49.661 242.216C55.0271 247.601 60.9373 252.372 67.0386 257.787C55.6672 255.86 29.4906 231.313 17.8052 209.987C6.58975 189.518 0.458784 167.724 0.0139036 144.699C-0.497619 118.225 13.2238 75.0591 21.5897 74.7971C4.50933 109.809 1.8129 145.753 13.8699 182.964Z" fill="#FFDD9B"/>
<defs>
<linearGradient id="paint0_linear_23_920" x1="138.262" y1="0" x2="138.262" y2="268.452" gradientUnits="userSpaceOnUse">
<stop stop-color="#FFDD9B"/>
<stop offset="0.32" stop-color="#F7CB75"/>
<stop offset="1" stop-color="#A78445"/>
</linearGradient>
<linearGradient id="paint1_linear_23_920" x1="181.188" y1="102.049" x2="181.188" y2="300" gradientUnits="userSpaceOnUse">
<stop stop-color="#FFDD9B"/>
<stop offset="0.32" stop-color="#F7CB75"/>
<stop offset="1" stop-color="#A78445"/>
</linearGradient>
<linearGradient id="paint2_linear_23_920" x1="106.013" y1="55.1525" x2="106.013" y2="135.759" gradientUnits="userSpaceOnUse">
<stop stop-color="#FFDD9B"/>
<stop offset="0.32" stop-color="#F7CB75"/>
<stop offset="1" stop-color="#A78445"/>
</linearGradient>
</defs>
</svg>
