<svg width="279" height="108" viewBox="0 0 279 108" fill="none" xmlns="http://www.w3.org/2000/svg">
<path d="M14.0441 94.1215V106.956H12.6781V96.6723L7.34221 105.337H6.65921L1.36599 96.7532V106.956H0V94.1215H1.15256L7.0434 103.636L12.8489 94.1215H14.0441Z" fill="#F7CB75"/>
<path d="M32.9765 103.515H25.4209L23.7987 106.956H22.3047L28.4943 94.1215H29.903L36.0927 106.956H34.5986L32.9765 103.515ZM32.4216 102.422L29.1773 95.5386L25.9331 102.422H32.4216Z" fill="#F7CB75"/>
<path d="M48.5403 100.924L45.7656 103.596V106.956H44.3569V94.1215H45.7656V101.895L53.7054 94.1215H55.3702L49.5221 99.9114L55.7544 106.956H54.0896L48.5403 100.924Z" fill="#F7CB75"/>
<path d="M73.6786 105.782V106.956H64.1167V94.1215H73.3798V95.2956H65.5254V99.8709H72.5261V101.005H65.5254V105.782H73.6786Z" fill="#F7CB75"/>
<path d="M88.9538 107.078C87.6091 107.078 86.4032 106.795 85.3253 106.228C84.2368 105.661 83.3831 104.881 82.7641 103.879C82.1665 102.887 81.8677 101.764 81.8677 100.519C81.8677 99.3041 82.1665 98.2007 82.7641 97.1986C83.3831 96.2066 84.2368 95.4171 85.3253 94.8503C86.4032 94.2834 87.6091 94 88.9538 94C90.2877 94 91.4937 94.2834 92.5822 94.8503C93.66 95.4171 94.5138 96.2066 95.1434 97.1986C95.7624 98.2007 96.0825 99.3041 96.0825 100.519C96.0825 101.764 95.7624 102.887 95.1434 103.879C94.5138 104.881 93.66 105.661 92.5822 106.228C91.4937 106.795 90.2877 107.078 88.9538 107.078ZM88.9538 105.863C90.0316 105.863 91.0028 105.641 91.8565 105.175C92.7316 104.719 93.4146 104.082 93.9055 103.272C94.3857 102.462 94.6312 101.551 94.6312 100.519C94.6312 99.5267 94.3857 98.6157 93.9055 97.806C93.4146 96.9962 92.7316 96.3686 91.8565 95.903C91.0028 95.4475 90.0316 95.2147 88.9538 95.2147C87.8973 95.2147 86.9261 95.4475 86.051 95.903C85.1973 96.3686 84.5143 96.9962 84.002 97.806C83.5111 98.6157 83.2764 99.5267 83.2764 100.519C83.2764 101.551 83.5111 102.462 84.002 103.272C84.5143 104.082 85.1973 104.719 86.051 105.175C86.9261 105.641 87.8973 105.863 88.9538 105.863Z" fill="#F7CB75"/>
<path d="M116.526 94.1215L110.55 106.956H109.141L103.123 94.1215H104.702L109.867 105.256L115.075 94.1215H116.526Z" fill="#F7CB75"/>
<path d="M134.37 105.782V106.956H124.808V94.1215H134.071V95.2956H126.216V99.8709H133.217V101.005H126.216V105.782H134.37Z" fill="#F7CB75"/>
<path d="M152.974 106.956L149.901 102.827C149.527 102.857 149.154 102.867 148.791 102.867H145.163V106.956H143.754V94.1215H148.791C150.52 94.1215 151.875 94.5162 152.846 95.2956C153.839 96.0852 154.34 97.1581 154.34 98.5348C154.34 99.5369 154.063 100.387 153.529 101.086C152.985 101.764 152.217 102.25 151.224 102.543L154.554 106.956H152.974ZM148.748 101.733C150.114 101.733 151.139 101.45 151.822 100.883C152.526 100.316 152.889 99.5369 152.889 98.5348C152.889 97.482 152.526 96.6925 151.822 96.1459C151.139 95.5791 150.114 95.2956 148.748 95.2956H145.163V101.733H148.748Z" fill="#F7CB75"/>
<path d="M178.529 107.078C177.526 107.078 176.565 106.936 175.626 106.633C174.708 106.309 174.004 105.894 173.492 105.377L174.047 104.365C174.559 104.831 175.21 105.205 176.01 105.499C176.832 105.772 177.675 105.904 178.529 105.904C179.745 105.904 180.663 105.701 181.261 105.296C181.858 104.871 182.157 104.315 182.157 103.636C182.157 103.13 181.986 102.725 181.645 102.422C181.325 102.098 180.93 101.855 180.45 101.693C179.991 101.531 179.34 101.359 178.486 101.167C177.462 100.924 176.629 100.701 176.01 100.478C175.413 100.235 174.9 99.8911 174.474 99.4255C174.047 98.97 173.833 98.3323 173.833 97.5225C173.833 96.8747 174.004 96.2978 174.345 95.7815C174.708 95.245 175.263 94.8098 176.01 94.4859C176.779 94.162 177.718 94 178.828 94C179.596 94 180.343 94.1113 181.09 94.3239C181.826 94.5162 182.467 94.7895 183.011 95.1337L182.541 96.2269C181.965 95.8827 181.357 95.6196 180.706 95.4576C180.076 95.2754 179.447 95.1742 178.828 95.1742C177.632 95.1742 176.736 95.3969 176.138 95.822C175.541 96.2573 175.242 96.814 175.242 97.4821C175.242 97.9983 175.391 98.4133 175.711 98.7372C176.053 99.0409 176.458 99.2838 176.949 99.466C177.462 99.628 178.123 99.8102 178.956 99.9924C179.948 100.215 180.749 100.438 181.346 100.681C181.965 100.903 182.499 101.237 182.926 101.693C183.352 102.159 183.566 102.776 183.566 103.555C183.566 104.203 183.374 104.8 183.011 105.337C182.637 105.884 182.072 106.309 181.303 106.633C180.556 106.936 179.639 107.078 178.529 107.078Z" fill="#F7CB75"/>
<path d="M195.32 95.2956H190.582V94.1215H201.51V95.2956H196.772V106.956H195.32V95.2956Z" fill="#F7CB75"/>
<path d="M215.246 107.078C213.506 107.078 212.14 106.612 211.148 105.661C210.177 104.689 209.696 103.302 209.696 101.49V94.1215H211.105V101.409C211.105 102.897 211.457 104.021 212.172 104.77C212.876 105.499 213.901 105.863 215.246 105.863C216.612 105.863 217.647 105.499 218.362 104.77C219.066 104.021 219.429 102.897 219.429 101.409V94.1215H220.795V101.49C220.795 103.302 220.304 104.689 219.344 105.661C218.372 106.612 217.006 107.078 215.246 107.078Z" fill="#F7CB75"/>
<path d="M231.151 94.1215H236.658C238.077 94.1215 239.326 94.3948 240.415 94.9312C241.524 95.4778 242.378 96.2269 242.976 97.1986C243.595 98.1704 243.915 99.2838 243.915 100.519C243.915 101.794 243.595 102.908 242.976 103.879C242.378 104.851 241.524 105.61 240.415 106.147C239.326 106.693 238.077 106.956 236.658 106.956H231.151V94.1215ZM236.573 105.782C237.768 105.782 238.803 105.57 239.689 105.134C240.564 104.679 241.247 104.062 241.738 103.272C242.25 102.493 242.506 101.571 242.506 100.519C242.506 99.4964 242.25 98.5955 241.738 97.806C241.247 97.0265 240.564 96.4192 239.689 95.984C238.803 95.5285 237.768 95.2956 236.573 95.2956H232.56V105.782H236.573Z" fill="#F7CB75"/>
<path d="M253.136 94.1215H254.545V106.956H253.136V94.1215Z" fill="#F7CB75"/>
<path d="M270.871 107.078C269.527 107.078 268.321 106.795 267.243 106.228C266.154 105.661 265.301 104.881 264.682 103.879C264.084 102.887 263.785 101.764 263.785 100.519C263.785 99.3041 264.084 98.2007 264.682 97.1986C265.301 96.2066 266.154 95.4171 267.243 94.8503C268.321 94.2834 269.527 94 270.871 94C272.205 94 273.411 94.2834 274.5 94.8503C275.578 95.4171 276.431 96.2066 277.061 97.1986C277.68 98.2007 278 99.3041 278 100.519C278 101.764 277.68 102.887 277.061 103.879C276.431 104.881 275.578 105.661 274.5 106.228C273.411 106.795 272.205 107.078 270.871 107.078ZM270.871 105.863C271.949 105.863 272.92 105.641 273.774 105.175C274.649 104.719 275.332 104.082 275.823 103.272C276.303 102.462 276.549 101.551 276.549 100.519C276.549 99.5267 276.303 98.6157 275.823 97.806C275.332 96.9962 274.649 96.3686 273.774 95.903C272.92 95.4475 271.949 95.2147 270.871 95.2147C269.815 95.2147 268.844 95.4475 267.969 95.903C267.115 96.3686 266.432 96.9962 265.92 97.806C265.429 98.6157 265.194 99.5267 265.194 100.519C265.194 101.551 265.429 102.462 265.92 103.272C266.432 104.082 267.115 104.719 267.969 105.175C268.844 105.641 269.815 105.863 270.871 105.863Z" fill="#F7CB75"/>
<path d="M164.327 65.2755C162.721 61.5064 162.397 57.7881 164.084 54.0426C165.661 50.5411 168.566 48.2689 171.957 46.4821C175.203 44.7723 178.76 43.7969 182.232 42.6231C184.529 41.8467 186.801 41.0146 188.904 39.8192C192.775 37.6201 195.533 34.6275 196.995 30.4688C198.267 26.8538 198.49 23.2503 197.679 19.5883C197.29 17.8327 196.657 16.1045 195.591 14.5626C195.962 15.9649 196.361 17.3525 196.684 18.7624C197.075 20.4694 197.063 22.1735 196.936 23.8764C196.467 30.2033 193.265 34.9069 187.557 38.1655C183.695 40.3703 179.477 41.7345 175.291 43.1991C171.957 44.3653 168.676 45.6366 166.117 48.1265C165.493 48.7342 164.943 49.3859 164.48 50.1071C164.293 50.3975 164.176 50.7496 163.632 50.8596C163.254 49.7902 163.575 48.7669 163.826 47.7854C164.521 45.0597 166.441 43.1204 168.593 41.3554C170.896 39.4663 173.552 38.0632 176.068 36.4681C178.221 35.1031 180.299 33.6569 181.975 31.747C186.981 26.0418 184.873 16.9269 177.929 14.2345C173.473 12.5069 168.984 12.7414 164.483 13.9925C161.238 14.8944 158.442 16.5608 155.942 18.7033C155.5 19.0825 155.096 19.486 154.781 19.967C154.544 20.3298 154.283 20.6552 153.5 20.6586C155.172 15.8374 157.949 11.9359 162.154 9.01299C166.319 6.117 171.025 4.53759 176.164 4.1163C169.727 4.08002 163.759 5.48389 158.651 9.44344C158.28 8.87508 158.675 8.65237 158.891 8.41663C161.649 5.40879 165.11 3.41152 168.983 1.95841C172.644 0.584859 176.47 0.00550995 180.344 4.97157e-05C189.381 -0.0126891 197.467 2.42115 203.676 9.04285C206.281 11.8207 207.927 15.1387 208.694 18.772C210.124 25.541 208.808 31.8724 204.981 37.7347C202.063 42.2039 197.935 45.4162 193.214 48.0198C189.056 50.3126 184.584 52.0049 180.344 54.1405C177.323 55.6624 174.473 57.3962 172.403 60.0641C169.9 63.289 169.155 66.8415 170.284 70.7256C170.343 70.928 170.399 71.1315 170.443 71.3371C170.457 71.4011 170.426 71.4737 170.412 71.5679C169.891 71.9116 169.523 71.5165 169.15 71.2833C166.832 69.8357 165.532 67.6368 164.327 65.2755ZM182.486 46.9836C179.067 48.2028 175.676 49.4712 172.844 51.754C174.814 50.5973 176.835 49.5482 178.995 48.719C182.792 47.2609 186.735 46.171 190.471 44.5619C194.528 42.8148 197.968 40.4036 200.211 36.6304C202.437 32.888 203.252 28.8334 203.274 24.5939C203.277 23.9302 203.143 23.2669 203.102 22.6018C203.062 21.9423 202.968 21.3003 202.678 20.6912C203.08 23.4962 203.085 26.2818 202.548 29.0645C201.413 34.9496 198.533 39.6888 192.895 42.7155C189.629 44.4689 186.107 45.6203 182.486 46.9836ZM185.779 11.9118C188.525 13.9967 190.048 16.927 190.534 20.0174C191.301 24.891 190.043 29.469 186.322 33.2088C190.717 29.5998 192.594 23.2693 190.356 17.3697C188.648 12.8665 183.964 9.03507 180.175 9.12983C182.294 9.69784 184.119 10.5016 185.779 11.9118Z" fill="url(#paint0_linear_64_2)"/>
<path d="M187.535 74.6399C190.418 77.0817 193.698 78.3254 197.534 78.0372C197.458 78.5836 197.166 78.6772 196.882 78.7446C193.48 79.5522 190.084 80.3318 186.518 80.0813C183.117 79.8424 179.868 79.0435 177.268 76.9637C171.343 72.2229 170.595 66.2052 176.017 60.5513C178.55 57.9098 181.762 56.1887 185.025 54.5395C190.173 51.9378 195.396 49.4514 200.015 46.0151C204.324 42.809 207.591 38.8653 209.277 33.8434C209.89 32.0168 210.101 30.1441 209.996 28.2318C209.978 27.907 209.848 27.5281 210.219 27.2571C210.687 27.3705 210.811 27.7746 210.977 28.0999C213.61 33.287 214.64 38.607 212.364 44.1766C211.113 47.2353 208.95 49.657 206.365 51.7542C203.209 54.3149 199.655 56.3323 196.14 58.3989C192.399 60.598 188.975 63.144 186.696 66.8069C184.815 69.8299 185.078 71.8847 187.535 74.6399ZM178.486 66.5887C177.792 68.6789 178.151 70.6428 179.274 72.5262C178.195 69.8449 178.508 67.2976 180.084 64.8942C181.049 63.4208 182.373 62.2439 183.773 61.1491C187.911 57.9141 192.781 55.8391 197.419 53.4029C200.481 51.7947 203.159 49.7807 205.532 47.1907C205.056 47.232 204.934 47.513 204.74 47.6925C202.29 49.9556 199.543 51.8175 196.499 53.292C192.525 55.2165 188.573 57.1882 184.905 59.6126C182.22 61.387 179.777 63.4074 178.486 66.5887Z" fill="url(#paint1_linear_64_2)"/>
<path d="M173.819 14.8817C176.544 15.3408 178.821 16.3781 180.456 18.4613C182.713 21.3368 182.874 24.5434 181.675 27.7625C180.216 31.682 177.366 34.4759 173.259 36.0329C173.02 36.1233 172.774 36.2022 172.525 36.2569C172.434 36.2768 172.322 36.2104 172.215 36.1821C172.122 35.6937 172.543 35.4992 172.786 35.2181C174.223 33.5548 175.473 31.794 176.102 29.6899C177.812 23.9785 174.373 19.2731 168.918 17.6872C167.25 17.2021 165.539 16.9795 163.808 16.8519C163.533 16.8316 163.21 16.925 162.901 16.4588C166.403 15.0172 169.969 14.4263 173.819 14.8817Z" fill="url(#paint2_linear_64_2)"/>
<path d="M203.773 71.5703C201.189 72.6581 198.705 73.7801 195.938 74.1674C196.306 73.7133 196.775 73.4353 197.313 73.2563C204.64 70.8194 210.548 66.5285 215.173 60.6601C218.59 56.3242 221.042 51.5178 222.252 46.1828C224.298 37.1603 223.371 28.4978 218.922 20.2154C216.587 15.8704 213.457 12.1551 209.625 8.94606C209.381 8.74162 209.077 8.58168 209.032 8.15087C209.572 8.10569 209.922 8.41808 210.277 8.68545C218.504 14.8767 223.335 22.9049 224.741 32.8057C226.015 41.7795 224.024 50.1439 219.273 57.8757C215.842 63.4589 211.016 67.816 205.018 70.9399C204.63 71.1422 204.238 71.3385 203.773 71.5703Z" fill="#F7CB75"/>
<path d="M147.739 48.8689C149.665 54.9291 152.856 60.1738 157.418 64.695C158.869 66.1331 160.468 67.4074 162.118 68.8538C159.042 68.3392 151.963 61.7827 148.803 56.0865C145.77 50.6195 144.112 44.7984 143.992 38.6485C143.854 31.5775 147.564 20.0479 149.827 19.9779C145.208 29.3295 144.479 38.93 147.739 48.8689Z" fill="#F7CB75"/>
<path d="M80.1416 80.3225C75.0465 80.3225 71.0837 79.5441 68.2531 77.9873C65.4224 76.4304 63.4056 74.0244 62.2026 70.7692C61.0704 67.4432 60.5043 63.0204 60.5043 57.5007V16.6338L33.9673 75.5459H31.8443L4.24591 15.5723V75.5459H0V5.48828H10.084L35.5595 60.6852L60.5043 5.48828H70.0576V57.5007C70.0576 64.0819 70.8714 69.177 72.499 72.786C74.1973 76.395 76.7449 78.1995 80.1416 78.1995V80.3225Z" fill="#F7CB75"/>
<path d="M113.565 46.5675L95.5203 19.2875C93.6804 16.6692 92.1236 14.617 90.8498 13.1309C89.5761 11.6449 88.0546 10.4065 86.2855 9.41575C84.5871 8.35427 82.5349 7.75277 80.1289 7.61124V5.48828H89.6822C93.2205 5.48828 96.1926 6.54976 98.5986 8.67271C101.005 10.7249 103.34 13.5555 105.604 17.1645L120.996 41.0478L143.181 5.48828H147.957L123.119 45.8245V75.5459H113.565V46.5675Z" fill="#F7CB75"/>
<path d="M257.53 75.7382C253.746 75.7382 250.03 75.2249 246.382 74.1983C242.735 73.1717 239.742 71.7003 237.402 69.784C235.132 67.8677 233.996 65.6776 233.996 63.2138V52.2294H235.854C237.024 59.0733 239.295 64.0351 242.667 67.1148C246.038 70.1262 250.683 71.6318 256.601 71.6318C260.317 71.6318 263.483 70.7079 266.098 68.86C268.781 67.0122 270.123 64.4457 270.123 61.1607C270.123 58.2862 269.229 55.7882 267.439 53.6666C265.65 51.545 262.76 49.3207 258.769 46.9938L246.073 39.4997C241.669 36.899 238.538 34.2641 236.68 31.595C234.891 28.9259 233.996 25.675 233.996 21.8424C233.996 16.5726 235.82 12.3636 239.467 9.21545C243.183 5.99882 248.034 4.3905 254.021 4.3905C257.53 4.3905 261.005 4.9038 264.446 5.93038C267.887 6.88852 270.708 8.32574 272.91 10.242C275.181 12.0899 276.316 14.2457 276.316 16.7095V27.694H274.458C273.288 20.8501 271.052 15.9567 267.749 13.0138C264.515 10.0025 259.939 8.49684 254.021 8.49684C250.855 8.49684 248.068 9.45499 245.66 11.3713C243.251 13.2876 242.047 15.7856 242.047 18.8654C242.047 21.6714 242.907 23.9983 244.628 25.8461C246.417 27.694 249.376 29.8498 253.505 32.3136L266.201 39.8077C270.88 42.6137 274.183 45.2144 276.11 47.6097C278.037 50.0051 279 53.0506 279 56.7463C279 62.4952 277.073 67.1148 273.22 70.6052C269.366 74.0272 264.136 75.7382 257.53 75.7382Z" fill="#F7CB75"/>
<defs>
<linearGradient id="paint0_linear_64_2" x1="181.379" y1="0" x2="181.379" y2="71.7026" gradientUnits="userSpaceOnUse">
<stop stop-color="#FFDD9B"/>
<stop offset="0.32" stop-color="#F7CB75"/>
<stop offset="1" stop-color="#A78445"/>
</linearGradient>
<linearGradient id="paint1_linear_64_2" x1="192.987" y1="27.2571" x2="192.987" y2="80.129" gradientUnits="userSpaceOnUse">
<stop stop-color="#FFDD9B"/>
<stop offset="0.32" stop-color="#F7CB75"/>
<stop offset="1" stop-color="#A78445"/>
</linearGradient>
<linearGradient id="paint2_linear_64_2" x1="172.658" y1="14.731" x2="172.658" y2="36.2605" gradientUnits="userSpaceOnUse">
<stop stop-color="#FFDD9B"/>
<stop offset="0.32" stop-color="#F7CB75"/>
<stop offset="1" stop-color="#A78445"/>
</linearGradient>
</defs>
</svg>
