<svg width="259" height="141" viewBox="0 0 259 141" fill="none" xmlns="http://www.w3.org/2000/svg">
<path d="M107.05 47.25C104.65 47.25 102.783 46.8833 101.45 46.15C100.117 45.4167 99.1667 44.2833 98.6 42.75C98.0667 41.1833 97.8 39.1 97.8 36.5V17.25L85.3 45H84.3L71.3 16.75V45H69.3V12H74.05L86.05 38L97.8 12H102.3V36.5C102.3 39.6 102.683 42 103.45 43.7C104.25 45.4 105.45 46.25 107.05 46.25V47.25ZM138.873 45.25C137.273 45.25 135.69 44.8167 134.123 43.95C132.557 43.05 131.307 41.3167 130.373 38.75L129.123 35.5H115.123L111.123 45H108.873L122.873 12H124.373L135.373 38.75C136.207 40.6833 136.99 42.0167 137.723 42.75C138.457 43.45 139.507 43.8667 140.873 44V45C140.273 45.1667 139.607 45.25 138.873 45.25ZM115.873 33.5H128.123L122.123 19L115.873 33.5ZM170.562 45.5C168.995 45.5 167.362 45.0833 165.662 44.25C163.962 43.3833 162.012 41.8 159.812 39.5L149.312 28.5V45H144.812V18C144.812 16.3 144.578 15.05 144.112 14.25C143.645 13.4167 142.712 13 141.312 13H140.312V12H144.812C146.045 12 146.962 12.1667 147.562 12.5C148.195 12.8 148.645 13.3667 148.912 14.2C149.178 15.0333 149.312 16.3 149.312 18V27.75L159.812 17.25L160.812 16.2C161.745 15.2333 162.528 14.4833 163.162 13.95C163.795 13.3833 164.545 12.9167 165.412 12.55C166.278 12.1833 167.245 12 168.312 12H170.812V13.25C169.412 13.25 168.195 13.5 167.162 14C166.128 14.4667 164.928 15.3833 163.562 16.75L153.812 26.5L165.312 38.5C166.778 40 168.262 41.2667 169.762 42.3C171.262 43.3 172.612 43.8833 173.812 44.05V45C172.812 45.3333 171.728 45.5 170.562 45.5ZM178.65 18C178.65 16.3 178.416 15.05 177.95 14.25C177.483 13.4167 176.55 13 175.15 13H174.15V12H195.45C198.283 12 199.7 13.3333 199.7 16V19.75H198.7C198.7 15.9167 196.616 14 192.45 14H183.15V27H196.65V29H183.15V43H191.9C194.2 43 196 42.5833 197.3 41.75C198.6 40.9167 199.633 39.5 200.4 37.5L201.4 37.75L199.65 42.5C199.05 44.1667 197.8 45 195.9 45H178.65V18Z" fill="#FFDD9B"/>
<path d="M16.5 78.35L8 65.5C7.13333 64.2667 6.4 63.3 5.8 62.6C5.2 61.9 4.48333 61.3167 3.65 60.85C2.85 60.35 1.88333 60.0667 0.75 60V59H5.25C6.91667 59 8.31667 59.5 9.45 60.5C10.5833 61.4667 11.6833 62.8 12.75 64.5L20 75.75L30.45 59H32.7L21 78V92H16.5V78.35ZM49.1457 93C46.0457 93 43.3124 92.2333 40.9457 90.7C38.6124 89.1667 36.8124 87.0667 35.5457 84.4C34.279 81.7333 33.6457 78.7667 33.6457 75.5C33.6457 72.2333 34.279 69.2667 35.5457 66.6C36.8124 63.9333 38.6124 61.8333 40.9457 60.3C43.3124 58.7667 46.0457 58 49.1457 58C52.2457 58 54.9624 58.7667 57.2957 60.3C59.6624 61.8333 61.479 63.9333 62.7457 66.6C64.0124 69.2667 64.6457 72.2333 64.6457 75.5C64.6457 78.7667 64.0124 81.7333 62.7457 84.4C61.479 87.0667 59.6624 89.1667 57.2957 90.7C54.9624 92.2333 52.2457 93 49.1457 93ZM49.1457 91C51.3124 91 53.179 90.3667 54.7457 89.1C56.3457 87.8333 57.5624 86.05 58.3957 83.75C59.229 81.4167 59.6457 78.6667 59.6457 75.5C59.6457 72.3333 59.229 69.6 58.3957 67.3C57.5624 64.9667 56.3457 63.1667 54.7457 61.9C53.179 60.6333 51.3124 60 49.1457 60C46.979 60 45.0957 60.6333 43.4957 61.9C41.929 63.1667 40.729 64.9667 39.8957 67.3C39.0624 69.6 38.6457 72.3333 38.6457 75.5C38.6457 78.6667 39.0624 81.4167 39.8957 83.75C40.729 86.05 41.929 87.8333 43.4957 89.1C45.0957 90.3667 46.979 91 49.1457 91ZM84.6414 92.5C81.4414 92.5 78.9081 91.9667 77.0414 90.9C75.1747 89.8 73.8414 88.1833 73.0414 86.05C72.2747 83.9167 71.8914 81.15 71.8914 77.75V65C71.8914 63.3 71.6581 62.05 71.1914 61.25C70.7247 60.4167 69.7914 60 68.3914 60H67.3914V59H71.8914C73.1247 59 74.0414 59.1667 74.6414 59.5C75.2747 59.8 75.7247 60.3667 75.9914 61.2C76.2581 62.0333 76.3914 63.3 76.3914 65V79.25C76.3914 82.95 77.0747 85.75 78.4414 87.65C79.8081 89.55 82.0747 90.5 85.2414 90.5C87.7747 90.5 89.7747 90.05 91.2414 89.15C92.7414 88.25 93.8081 86.8833 94.4414 85.05C95.0747 83.2167 95.3914 80.7833 95.3914 77.75V59H97.3914V77.75C97.3914 81.2167 97.0247 84.0167 96.2914 86.15C95.5581 88.25 94.2581 89.8333 92.3914 90.9C90.5581 91.9667 87.9747 92.5 84.6414 92.5ZM128.568 92.5C126.801 92.5 125.251 91.9833 123.918 90.95C122.618 89.8833 121.168 87.9833 119.568 85.25L114.568 76.75H111.068V92H106.568V65C106.568 63.3 106.334 62.05 105.868 61.25C105.401 60.4167 104.468 60 103.068 60H102.068V59H115.068C118.234 59 121.101 59.6333 123.668 60.9C126.268 62.1333 127.568 64.5 127.568 68C127.568 72.4333 124.901 75.2667 119.568 76.5L124.818 85.25C126.051 87.3167 127.151 88.7667 128.118 89.6C129.118 90.4 130.268 90.8667 131.568 91V92C131.268 92.1333 130.834 92.25 130.268 92.35C129.734 92.45 129.168 92.5 128.568 92.5ZM114.818 75C115.851 75 116.968 74.75 118.168 74.25C119.401 73.75 120.434 72.9667 121.268 71.9C122.134 70.8333 122.568 69.5333 122.568 68C122.568 66.3667 122.134 65.0167 121.268 63.95C120.434 62.85 119.401 62.05 118.168 61.55C116.968 61.0167 115.851 60.75 114.818 60.75C113.651 60.75 112.401 60.9167 111.068 61.25V74.5C112.401 74.8333 113.651 75 114.818 75Z" fill="#FFDD9B"/>
<path d="M163.8 93C160.7 93 157.967 92.2333 155.6 90.7C153.267 89.1667 151.467 87.0667 150.2 84.4C148.933 81.7333 148.3 78.7667 148.3 75.5C148.3 72.2333 148.933 69.2667 150.2 66.6C151.467 63.9333 153.267 61.8333 155.6 60.3C157.967 58.7667 160.7 58 163.8 58C166.9 58 169.617 58.7667 171.95 60.3C174.317 61.8333 176.133 63.9333 177.4 66.6C178.667 69.2667 179.3 72.2333 179.3 75.5C179.3 78.7667 178.667 81.7333 177.4 84.4C176.133 87.0667 174.317 89.1667 171.95 90.7C169.617 92.2333 166.9 93 163.8 93ZM163.8 91C165.967 91 167.833 90.3667 169.4 89.1C171 87.8333 172.217 86.05 173.05 83.75C173.883 81.4167 174.3 78.6667 174.3 75.5C174.3 72.3333 173.883 69.6 173.05 67.3C172.217 64.9667 171 63.1667 169.4 61.9C167.833 60.6333 165.967 60 163.8 60C161.633 60 159.75 60.6333 158.15 61.9C156.583 63.1667 155.383 64.9667 154.55 67.3C153.717 69.6 153.3 72.3333 153.3 75.5C153.3 78.6667 153.717 81.4167 154.55 83.75C155.383 86.05 156.583 87.8333 158.15 89.1C159.75 90.3667 161.633 91 163.8 91ZM184.91 64.85C184.243 62.9167 183.526 61.6 182.76 60.9C182.026 60.1667 180.91 59.7333 179.41 59.6V58.6C179.576 58.6 179.826 58.5833 180.16 58.55C180.46 58.5167 180.776 58.5 181.11 58.5C182.943 58.5 184.593 58.9167 186.06 59.75C187.56 60.5833 188.76 62.2833 189.66 64.85L196.36 84.15L201.71 68.3L200.51 64.85C199.843 62.9167 199.126 61.6 198.36 60.9C197.626 60.1667 196.51 59.7333 195.01 59.6V58.6C195.176 58.6 195.41 58.5833 195.71 58.55C196.043 58.5167 196.376 58.5 196.71 58.5C198.543 58.5 200.193 58.9167 201.66 59.75C203.16 60.5833 204.36 62.2833 205.26 64.85L211.96 84.15L220.51 59H222.66L211.21 92.5H210.21L202.81 71.45L195.61 92.5H194.61L184.91 64.85ZM231.82 65.75V92H229.82V65C229.82 63.4 229.47 62.1667 228.77 61.3C228.104 60.4333 226.954 60 225.32 60H224.82V59H228.07C229.604 59 230.904 59.25 231.97 59.75C233.037 60.25 233.987 61 234.82 62L252.32 83.75V59H254.32V92.5H253.32L231.82 65.75Z" fill="#FFDD9B"/>
<path d="M79.1 139.85C77.2667 139.85 75.4667 139.6 73.7 139.1C71.9333 138.6 70.4833 137.883 69.35 136.95C68.25 136.017 67.7 134.95 67.7 133.75V128.4H68.6C69.1667 131.733 70.2667 134.15 71.9 135.65C73.5333 137.117 75.7833 137.85 78.65 137.85C80.45 137.85 81.9833 137.4 83.25 136.5C84.55 135.6 85.2 134.35 85.2 132.75C85.2 131.35 84.7667 130.133 83.9 129.1C83.0333 128.067 81.6333 126.983 79.7 125.85L73.55 122.2C71.4167 120.933 69.9 119.65 69 118.35C68.1333 117.05 67.7 115.467 67.7 113.6C67.7 111.033 68.5833 108.983 70.35 107.45C72.15 105.883 74.5 105.1 77.4 105.1C79.1 105.1 80.7833 105.35 82.45 105.85C84.1167 106.317 85.4833 107.017 86.55 107.95C87.65 108.85 88.2 109.9 88.2 111.1V116.45H87.3C86.7333 113.117 85.65 110.733 84.05 109.3C82.4833 107.833 80.2667 107.1 77.4 107.1C75.8667 107.1 74.5167 107.567 73.35 108.5C72.1833 109.433 71.6 110.65 71.6 112.15C71.6 113.517 72.0167 114.65 72.85 115.55C73.7167 116.45 75.15 117.5 77.15 118.7L83.3 122.35C85.5667 123.717 87.1667 124.983 88.1 126.15C89.0333 127.317 89.5 128.8 89.5 130.6C89.5 133.4 88.5667 135.65 86.7 137.35C84.8333 139.017 82.3 139.85 79.1 139.85ZM104.46 108H99.9602C95.7935 108 93.7102 109.917 93.7102 113.75H92.7102V110C92.7102 107.333 94.1268 106 96.9602 106H120.21V108H108.96V139H104.46V108ZM135.896 125.35L127.396 112.5C126.53 111.267 125.796 110.3 125.196 109.6C124.596 108.9 123.88 108.317 123.046 107.85C122.246 107.35 121.28 107.067 120.146 107V106H124.646C126.313 106 127.713 106.5 128.846 107.5C129.98 108.467 131.08 109.8 132.146 111.5L139.396 122.75L149.846 106H152.096L140.396 125V139H135.896V125.35ZM158.093 112C158.093 110.3 157.86 109.05 157.393 108.25C156.926 107.417 155.993 107 154.593 107H153.593V106H158.093C159.326 106 160.243 106.167 160.843 106.5C161.476 106.8 161.926 107.367 162.193 108.2C162.46 109.033 162.593 110.3 162.593 112V137H180.343V139H158.093V112ZM185.046 112C185.046 110.3 184.813 109.05 184.346 108.25C183.879 107.417 182.946 107 181.546 107H180.546V106H201.846C204.679 106 206.096 107.333 206.096 110V113.75H205.096C205.096 109.917 203.013 108 198.846 108H189.546V121H203.046V123H189.546V137H198.296C200.596 137 202.396 136.583 203.696 135.75C204.996 134.917 206.029 133.5 206.796 131.5L207.796 131.75L206.046 136.5C205.446 138.167 204.196 139 202.296 139H185.046V112Z" fill="#FFDD9B"/>
</svg>
